<svg xmlns="http://www.w3.org/2000/svg" viewBox="0 0 512 512">
  <defs>
    <radialGradient id="petalGradient" cx="50%" cy="40%" r="70%">
      <stop offset="0%" stop-color="#c2f0c2" />
      <stop offset="60%" stop-color="#6ea86e" />
      <stop offset="100%" stop-color="#2f6b45" />
    </radialGradient>

    <radialGradient id="innerPetalGradient" cx="50%" cy="35%" r="70%">
      <stop offset="0%" stop-color="#e5ffe5" />
      <stop offset="60%" stop-color="#8fca8f" />
      <stop offset="100%" stop-color="#2a5a3a" />
    </radialGradient>

    <g id="outer-petal">
      <ellipse cx="256" cy="150" rx="70" ry="115" fill="url(#petalGradient)"
        stroke="#174330" stroke-width="8" />
      <path d="M256 150 L256 55" stroke="#174330" stroke-width="3" stroke-linecap="round" opacity="0.7"/>
      <path d="M256 150 C240 115 230 90 220 65" stroke="#174330" stroke-width="2.5" opacity="0.6" stroke-linecap="round"/>
      <path d="M256 150 C272 115 282 90 292 65" stroke="#174330" stroke-width="2.5" opacity="0.6" stroke-linecap="round"/>
    </g>

    <g id="inner-petal">
      <ellipse cx="256" cy="205" rx="40" ry="70" fill="url(#innerPetalGradient)"
        stroke="#174330" stroke-width="5"/>
      <path d="M256 205 L256 145" stroke="#174330" stroke-width="2.5" opacity="0.7" stroke-linecap="round"/>
      <path d="M256 205 C246 180 240 165 233 150" stroke="#174330" stroke-width="2" opacity="0.6" stroke-linecap="round"/>
      <path d="M256 205 C266 180 272 165 279 150" stroke="#174330" stroke-width="2" opacity="0.6" stroke-linecap="round"/>
    </g>
  </defs>

  <g>
    <use href="#outer-petal"/>
    <use href="#outer-petal" transform="rotate(72 256 256)"/>
    <use href="#outer-petal" transform="rotate(144 256 256)"/>
    <use href="#outer-petal" transform="rotate(216 256 256)"/>
    <use href="#outer-petal" transform="rotate(288 256 256)"/>
  </g>

  <g>
    <use href="#inner-petal"/>
    <use href="#inner-petal" transform="rotate(72 256 256)"/>
    <use href="#inner-petal" transform="rotate(144 256 256)"/>
    <use href="#inner-petal" transform="rotate(216 256 256)"/>
    <use href="#inner-petal" transform="rotate(288 256 256)"/>
  </g>

  <circle cx="256" cy="256" r="18" fill="#f6ffe8" stroke="#174330" stroke-width="4"/>
</svg>
